<svg xmlns="http://www.w3.org/2000/svg" width="43" height="43" viewBox="0 0 43 43"><path d="M21.658.468a21.5,21.5,0,1,0,21.5,21.5A21.5,21.5,0,0,0,21.658.468Zm5.449,19.463-.357,3a.566.566,0,0,1-.566.5H23.073v8.883a.4.4,0,0,1-.4.4H19.508a.4.4,0,0,1-.4-.407l.017-8.88H16.773a.566.566,0,0,1-.566-.566V19.872a.566.566,0,0,1,.566-.566h2.34V16.4c0-3.358,2-5.185,4.922-5.185h2.4a.566.566,0,0,1,.566.566V14.3a.566.566,0,0,1-.566.566H24.962c-1.59.026-1.89.786-1.89,1.924v2.5h3.485a.566.566,0,0,1,.549.634Z" transform="translate(-0.158 -0.468)" fill="#fff"/></svg>