<svg xmlns="http://www.w3.org/2000/svg" width="43" height="43" viewBox="0 0 43 43"><path d="M0,21.5A21.5,21.5,0,1,1,21.5,43,21.5,21.5,0,0,1,0,21.5Zm10.75-4.345v8.69a6.414,6.414,0,0,0,6.405,6.4h8.69a6.409,6.409,0,0,0,6.4-6.4v-8.69a6.414,6.414,0,0,0-6.4-6.405h-8.69A6.415,6.415,0,0,0,10.75,17.155ZM17.2,30A4.2,4.2,0,0,1,13,25.8V17.2A4.2,4.2,0,0,1,17.2,13h8.6A4.2,4.2,0,0,1,30,17.2v8.6A4.2,4.2,0,0,1,25.8,30Zm.4-12.393A5.5,5.5,0,1,0,21.5,15.993,5.507,5.507,0,0,0,17.6,17.607Zm8.466-2.576a1.36,1.36,0,1,0,.962-.4A1.361,1.361,0,0,0,26.07,15.031ZM18,21.5A3.5,3.5,0,1,1,21.5,25,3.5,3.5,0,0,1,18,21.5Z" fill="#fff"/></svg>