<svg xmlns="http://www.w3.org/2000/svg" width="43" height="43" viewBox="0 0 43 43"><path d="M21.816.468a21.5,21.5,0,1,0,21.5,21.5A21.5,21.5,0,0,0,21.816.468ZM32.524,15.461a9.075,9.075,0,0,1-1.842,2.023.787.787,0,0,0-.283.614v.071a12.894,12.894,0,0,1-.832,4.487,13.139,13.139,0,0,1-2.447,4.1,12.087,12.087,0,0,1-5.3,3.505,13.268,13.268,0,0,1-4.17.648,12.729,12.729,0,0,1-6.393-1.723.368.368,0,0,1-.175-.407.354.354,0,0,1,.345-.266h.537a8.574,8.574,0,0,0,4.792-1.454,4.653,4.653,0,0,1-3.678-3.16.243.243,0,0,1,.283-.314,4.269,4.269,0,0,0,.781.073h.1a4.645,4.645,0,0,1-2.707-4.274.243.243,0,0,1,.359-.212,4.083,4.083,0,0,0,1.058.41,4.645,4.645,0,0,1-.75-5.632.243.243,0,0,1,.4-.031,12.164,12.164,0,0,0,8.348,4.461h.023a.175.175,0,0,0,.17-.189,4.919,4.919,0,0,1,.108-1.7,4.5,4.5,0,0,1,3.027-3.236,4.975,4.975,0,0,1,1.468-.226,4.628,4.628,0,0,1,3.066,1.157.6.6,0,0,0,.4.153.609.609,0,0,0,.141-.02,8.571,8.571,0,0,0,2.263-.934.24.24,0,0,1,.354.283,4.591,4.591,0,0,1-1.219,1.944,8.313,8.313,0,0,0,1.482-.5.243.243,0,0,1,.3.348Z" transform="translate(-0.316 -0.468)" fill="#fff"/></svg>